<svg height="480pt" viewBox="0 0 480 480" width="480pt" xmlns="http://www.w3.org/2000/svg" xmlns:xlink="http://www.w3.org/1999/xlink"><linearGradient id="a"><stop offset="0" stop-color="#e93e3a"/><stop offset=".357" stop-color="#ed683c"/><stop offset=".703" stop-color="#f3903f"/><stop offset="1" stop-color="#fdc70c"/></linearGradient><linearGradient id="b" gradientUnits="userSpaceOnUse" x1="80" x2="80" xlink:href="#a" y1="484.872" y2="-63.912"/><linearGradient id="c" gradientUnits="userSpaceOnUse" x1="112" x2="112" xlink:href="#a" y1="484.872" y2="-63.912"/><linearGradient id="d" gradientUnits="userSpaceOnUse" x1="368" x2="368" xlink:href="#a" y1="484.872" y2="-63.912"/><path d="m85.679688 221.679688c1.460937-1.535157 2.289062-3.5625 2.320312-5.679688.023438-1.050781-.195312-2.089844-.640625-3.039062-.40625-.96875-.972656-1.863282-1.679687-2.640626-3.207032-2.960937-8.152344-2.960937-11.359376 0-.707031.777344-1.273437 1.671876-1.679687 2.640626-.449219.949218-.667969 1.988281-.640625 3.039062-.019531 3.25 1.929688 6.1875 4.933594 7.433594 3 1.246094 6.457031.554687 8.746094-1.753906zm0 0" fill="url(#b)"/><path d="m184 0h-144c-22.082031.0273438-39.9726562 17.917969-40 40v144c.0273438 22.082031 17.917969 39.972656 40 40h16c4.417969 0 8-3.582031 8-8s-3.582031-8-8-8h-16c-13.253906 0-24-10.746094-24-24v-144c0-13.253906 10.746094-24 24-24h144c13.253906 0 24 10.746094 24 24v144c0 13.253906-10.746094 24-24 24h-80c-4.417969 0-8 3.582031-8 8s3.582031 8 8 8h80c22.082031-.027344 39.972656-17.917969 40-40v-144c-.027344-22.082031-17.917969-39.9726562-40-40zm0 0" fill="url(#c)"/><path d="m440 0h-144c-22.082031.0273438-39.972656 17.917969-40 40v144c.027344 22.082031 17.917969 39.972656 40 40h144c22.082031-.027344 39.972656-17.917969 40-40v-144c-.027344-22.082031-17.917969-39.9726562-40-40zm24 184c0 13.253906-10.746094 24-24 24h-144c-13.253906 0-24-10.746094-24-24v-144c0-13.253906 10.746094-24 24-24h144c13.253906 0 24 10.746094 24 24zm0 0" fill="url(#d)"/><path d="m184 256h-144c-22.082031.027344-39.9726562 17.917969-40 40v144c.0273438 22.082031 17.917969 39.972656 40 40h144c22.082031-.027344 39.972656-17.917969 40-40v-144c-.027344-22.082031-17.917969-39.972656-40-40zm24 184c0 13.253906-10.746094 24-24 24h-144c-13.253906 0-24-10.746094-24-24v-144c0-13.253906 10.746094-24 24-24h144c13.253906 0 24 10.746094 24 24zm0 0" fill="url(#c)"/><path d="m448 344h-56v-56c0-13.253906-10.746094-24-24-24s-24 10.746094-24 24v56h-56c-13.253906 0-24 10.746094-24 24s10.746094 24 24 24h56v56c0 13.253906 10.746094 24 24 24s24-10.746094 24-24v-56h56c13.253906 0 24-10.746094 24-24s-10.746094-24-24-24zm0 32h-64c-4.417969 0-8 3.582031-8 8v64c0 4.417969-3.582031 8-8 8s-8-3.582031-8-8v-64c0-4.417969-3.582031-8-8-8h-64c-4.417969 0-8-3.582031-8-8s3.582031-8 8-8h64c4.417969 0 8-3.582031 8-8v-64c0-4.417969 3.582031-8 8-8s8 3.582031 8 8v64c0 4.417969 3.582031 8 8 8h64c4.417969 0 8 3.582031 8 8s-3.582031 8-8 8zm0 0" fill="url(#d)"/></svg>