<svg height="512pt" viewBox="0 -39 512.00001 512" width="512pt" xmlns="http://www.w3.org/2000/svg" xmlns:xlink="http://www.w3.org/1999/xlink"><linearGradient id="a"><stop offset="0" stop-color="#e93e3a"/><stop offset=".357" stop-color="#ed683c"/><stop offset=".708" stop-color="#f3903f"/><stop offset="1" stop-color="#fdc70c"/></linearGradient><linearGradient id="b" gradientTransform="matrix(.679016 0 0 -.679016 0 466.826817)" gradientUnits="userSpaceOnUse" x1="434.5272" x2="434.5272" xlink:href="#a" y1="40.9664" y2="774.3589"/><linearGradient id="c" gradientTransform="matrix(.679016 0 0 -.679016 0 466.826817)" gradientUnits="userSpaceOnUse" x1="191.7032" x2="191.7032" xlink:href="#a" y1="40.9664" y2="774.3589"/><linearGradient id="d" gradientTransform="matrix(.679016 0 0 -.679016 0 466.826817)" gradientUnits="userSpaceOnUse" x1="242.824" x2="242.824" xlink:href="#a" y1="40.9664" y2="774.3589"/><linearGradient id="e" gradientTransform="matrix(.679016 0 0 -.679016 0 466.826817)" gradientUnits="userSpaceOnUse" x1="293.9449" x2="293.9449" xlink:href="#a" y1="40.9664" y2="774.3589"/><linearGradient id="f" gradientTransform="matrix(.679016 0 0 -.679016 0 466.826817)" gradientUnits="userSpaceOnUse" x1="523.9887" x2="523.9887" xlink:href="#a" y1="40.9664" y2="774.3589"/><linearGradient id="g" gradientTransform="matrix(.679016 0 0 -.679016 0 466.826817)" gradientUnits="userSpaceOnUse" x1="255.6042" x2="255.6042" xlink:href="#a" y1="40.9664" y2="774.3589"/><linearGradient id="h" gradientTransform="matrix(.679016 0 0 -.679016 0 466.826817)" gradientUnits="userSpaceOnUse" x1="115.0219" x2="115.0219" xlink:href="#a" y1="40.9664" y2="774.3589"/><linearGradient id="i" gradientTransform="matrix(.679016 0 0 -.679016 0 466.826817)" gradientUnits="userSpaceOnUse" x1="204.4834" x2="204.4834" xlink:href="#a" y1="40.9664" y2="774.3589"/><linearGradient id="j" gradientTransform="matrix(.679016 0 0 -.679016 0 466.826817)" gradientUnits="userSpaceOnUse" x1="140.5823" x2="140.5823" xlink:href="#a" y1="40.9664" y2="774.3589"/><linearGradient id="k" gradientTransform="matrix(.679016 0 0 -.679016 0 466.826817)" gradientUnits="userSpaceOnUse" x1="38.3406" x2="38.3406" xlink:href="#a" y1="40.9664" y2="774.3589"/><linearGradient id="l" gradientTransform="matrix(.679016 0 0 -.679016 0 466.826817)" gradientUnits="userSpaceOnUse" x1="281.1647" x2="281.1647" xlink:href="#a" y1="40.9664" y2="774.3589"/><linearGradient id="m" gradientTransform="matrix(.679016 0 0 -.679016 0 466.826817)" gradientUnits="userSpaceOnUse" x1="166.1428" x2="166.1428" xlink:href="#a" y1="40.9664" y2="774.3589"/><linearGradient id="n" gradientTransform="matrix(.679016 0 0 -.679016 0 466.826817)" gradientUnits="userSpaceOnUse" x1="102.2417" x2="102.2417" xlink:href="#a" y1="40.9664" y2="774.3589"/><linearGradient id="o" gradientTransform="matrix(.679016 0 0 -.679016 0 466.826817)" gradientUnits="userSpaceOnUse" x1="25.5604" x2="25.5604" xlink:href="#a" y1="40.9664" y2="774.3589"/><linearGradient id="p" gradientTransform="matrix(.679016 0 0 -.679016 0 466.826817)" gradientUnits="userSpaceOnUse" x1="51.1208" x2="51.1208" xlink:href="#a" y1="40.9664" y2="774.3589"/><path d="m468.609375 0h-347.117187c-23.953126.0273438-43.363282 19.4375-43.390626 43.390625v104.136719h17.355469v-60.746094h399.1875v303.726562c0 14.378907-11.65625 26.035157-26.035156 26.035157h-347.117187c-14.378907 0-26.035157-11.65625-26.035157-26.035157v-69.421874h-17.355469v69.421874c.027344 23.953126 19.4375 43.363282 43.390626 43.390626h347.117187c23.953125-.027344 43.363281-19.4375 43.390625-43.390626v-347.117187c-.027344-23.953125-19.4375-43.3632812-43.390625-43.390625zm-373.152344 69.425781v-26.035156c0-14.378906 11.65625-26.035156 26.035157-26.035156h347.117187c14.378906 0 26.035156 11.65625 26.035156 26.035156v26.035156zm0 0" fill="url(#b)"/><path d="m121.492188 34.710938h17.355468v17.355468h-17.355468zm0 0" fill="url(#c)"/><path d="m156.203125 34.710938h17.355469v17.355468h-17.355469zm0 0" fill="url(#d)"/><path d="m190.914062 34.710938h17.355469v17.355468h-17.355469zm0 0" fill="url(#e)"/><path d="m442.578125 303.730469c9.585937 0 17.355469-7.773438 17.355469-17.355469v-112.816406c0-.234375-.113282-.433594-.132813-.667969-.019531-.582031-.089843-1.164063-.214843-1.734375-.054688-.183594-.183594-.332031-.246094-.511719-.144532-.363281-.3125-.710937-.5-1.050781-.304688-.582031-.675782-1.132812-1.101563-1.632812-.246093-.285157-.503906-.554688-.78125-.804688-.53125-.453125-1.113281-.839844-1.738281-1.148438-.277344-.179687-.566406-.339843-.867188-.476562-.984374-.40625-2.035156-.625-3.097656-.648438h-190.914062c-1.066406.015626-2.121094.226563-3.109375.625-.296875.132813-.589844.289063-.867188.46875-.625.308594-1.207031.703126-1.734375 1.160157-.277344.253906-.519531.511719-.773437.789062-.429688.507813-.796875 1.058594-1.101563 1.648438-.1875.335937-.351562.679687-.492187 1.035156-.070313.191406-.199219.328125-.253907.519531-.136718.585938-.207031 1.179688-.214843 1.78125 0 .222656-.132813.414063-.132813.648438v112.816406c0 9.585938 7.773438 17.355469 17.355469 17.355469zm-173.5625-114.359375 54.125 34.441406-54.125 44.257812zm69.546875 44.257812 12.574219 8.007813c2.84375 1.8125 6.476562 1.8125 9.320312 0l12.574219-8.007813 64.519531 52.746094h-163.507812zm104.015625 34.449219-54.132813-44.257813 54.132813-34.449218zm-21.125-85.839844-65.65625 41.773438-65.65625-41.773438zm0 0" fill="url(#f)"/><path d="m112.8125 164.882812h121.492188v17.355469h-121.492188zm0 0" fill="url(#g)"/><path d="m60.746094 164.882812h34.710937v17.355469h-34.710937zm0 0" fill="url(#h)"/><path d="m164.882812 225.625h69.421876v17.359375h-69.421876zm0 0" fill="url(#e)"/><path d="m130.167969 225.625h17.355469v17.359375h-17.355469zm0 0" fill="url(#i)"/><path d="m78.101562 225.625h34.710938v17.359375h-34.710938zm0 0" fill="url(#j)"/><path d="m8.679688 225.625h34.710937v17.359375h-34.710937zm0 0" fill="url(#k)"/><path d="m147.527344 286.375h86.777344v17.355469h-86.777344zm0 0" fill="url(#l)"/><path d="m95.457031 286.375h34.710938v17.355469h-34.710938zm0 0" fill="url(#m)"/><path d="m60.746094 286.375h17.355468v17.355469h-17.355468zm0 0" fill="url(#n)"/><path d="m0 286.375h34.710938v17.355469h-34.710938zm0 0" fill="url(#o)"/><path d="m26.035156 164.882812h17.355469v17.355469h-17.355469zm0 0" fill="url(#p)"/></svg>