<svg height="512" viewBox="0 0 64 64" width="512" xmlns="http://www.w3.org/2000/svg" xmlns:xlink="http://www.w3.org/1999/xlink"><linearGradient id="New_Gradient_Swatch_1" gradientUnits="userSpaceOnUse" x1="59" x2="59" y1="-3.167" y2="67.151"><stop offset="0" stop-color="#fff33b"/><stop offset=".014" stop-color="#fee72e"/><stop offset=".042" stop-color="#fed51b"/><stop offset=".07" stop-color="#fdca10"/><stop offset=".1" stop-color="#fdc70c"/><stop offset=".4" stop-color="#f3903f"/><stop offset=".8" stop-color="#ed683c"/><stop offset="1" stop-color="#e93e3a"/></linearGradient><linearGradient id="New_Gradient_Swatch_1-2" x1="48" x2="48" xlink:href="#New_Gradient_Swatch_1" y1="-3.167" y2="67.151"/><linearGradient id="New_Gradient_Swatch_1-3" x1="21" x2="21" xlink:href="#New_Gradient_Swatch_1" y1="-3.167" y2="67.151"/><g id="documents-pencil-ruler-writing-files"><path d="m59 2a3.009 3.009 0 0 0 -3 3v49a.8.8 0 0 0 .04.27l2 7a1 1 0 0 0 1.92 0l2-7a.8.8 0 0 0 .04-.27v-49a3.009 3.009 0 0 0 -3-3zm0 55.36-.67-2.36h1.34zm1-4.36h-2v-38h2zm0-40h-2v-2h2zm0-4h-2v-4a1 1 0 0 1 2 0z" fill="url(#New_Gradient_Swatch_1)"/><path d="m53 2h-10a1 1 0 0 0 -1 1v58a1 1 0 0 0 1 1h10a1 1 0 0 0 1-1v-58a1 1 0 0 0 -1-1zm-1 58h-8v-6h2v-2h-2v-4h2v-2h-2v-4h2v-2h-2v-4h2v-2h-2v-4h2v-2h-2v-4h2v-2h-2v-4h2v-2h-2v-4h2v-2h-2v-6h8z" fill="url(#New_Gradient_Swatch_1-2)"/><path d="m39.71 10.29-8-8a1.033 1.033 0 0 0 -.71-.29h-26a3.009 3.009 0 0 0 -3 3v54a3.009 3.009 0 0 0 3 3h32a3.009 3.009 0 0 0 3-3v-48a1.033 1.033 0 0 0 -.29-.71zm-7.71-4.88 4.59 4.59h-4.59zm-25.82 54.59h-1.18a1 1 0 0 1 -1-1v-54a1 1 0 0 1 1-1h1.18a3 3 0 0 0 -.18 1v54a3 3 0 0 0 .18 1zm4 0h-1.18a1 1 0 0 1 -1-1v-54a1 1 0 0 1 1-1h1.18a3 3 0 0 0 -.18 1v54a3 3 0 0 0 .18 1zm27.82-1a1 1 0 0 1 -1 1h-24a1 1 0 0 1 -1-1v-54a1 1 0 0 1 1-1h17v7a1 1 0 0 0 1 1h7z" fill="url(#New_Gradient_Swatch_1-3)"/></g></svg>