<svg height="479pt" viewBox="0 1 479 479.99829" width="479pt" xmlns="http://www.w3.org/2000/svg" xmlns:xlink="http://www.w3.org/1999/xlink"><linearGradient id="a" gradientUnits="userSpaceOnUse" x1="240.400839" x2="240.400839" y1="473.942292" y2="-53.313708"><stop offset="0" stop-color="#e93e3a"/><stop offset=".357" stop-color="#ed683c"/><stop offset=".703" stop-color="#f3903f"/><stop offset="1" stop-color="#fdc70c"/></linearGradient><g fill="url(#a)"><path d="m478.058594 234.34375-232-232c-3.125-3.125-8.191406-3.125-11.3125 0l-232 232c-3.03125 3.136719-2.988282 8.128906.097656 11.214844 3.085938 3.085937 8.074219 3.128906 11.214844.09375l226.34375-226.34375 226.34375 226.34375c3.136718 3.035156 8.128906 2.992187 11.214844-.09375 3.085937-3.085938 3.128906-8.078125.097656-11.214844zm0 0"/><path d="m268.679688 72.972656c-15.617188-15.613281-40.9375-15.613281-56.558594 0l-148.6875 148.679688c-4.519532 4.492187-7.050782 10.605468-7.03125 16.976562v201.371094c.023437 22.078125 17.917968 39.972656 40 40h288c22.078125-.027344 39.972656-17.921875 40-40v-201.371094c.011718-6.367187-2.519532-12.480468-7.035156-16.976562zm-100.277344 391.027344v-120c0-39.765625 32.234375-72 72-72 39.761718 0 72 32.234375 72 72v120zm240-24c0 13.253906-10.746094 24-24 24h-56v-120c0-48.601562-39.402344-88-88-88-48.601563 0-88 39.398438-88 88v120h-56c-13.257813 0-24-10.746094-24-24v-201.371094c-.003906-2.121094.839844-4.160156 2.34375-5.664062l148.6875-148.679688c9.371094-9.367187 24.5625-9.367187 33.933594 0l148.691406 148.679688c1.5 1.503906 2.34375 3.542968 2.34375 5.664062zm0 0"/></g></svg>