<svg height="480pt" viewBox="0 -28 480.06435 480" width="480pt" xmlns="http://www.w3.org/2000/svg" xmlns:xlink="http://www.w3.org/1999/xlink"><linearGradient id="a"><stop offset="0" stop-color="#fff200"/><stop offset="1" stop-color="#cd118c"/></linearGradient><linearGradient id="b" gradientUnits="userSpaceOnUse" x1="60.592345" x2="540.592345" xlink:href="#a" y1="444.1763" y2="-51.8237"/><linearGradient id="c" gradientUnits="userSpaceOnUse" x1="-8.703655" x2="471.296345" xlink:href="#a" y1="377.1203" y2="-118.8797"/><path d="m476.863281 177.65625-232-176c-2.855469-2.164062-6.804687-2.164062-9.664062 0l-232 176c-2.761719 2.074219-3.882813 5.6875-2.777344 8.960938 1.105469 3.273437 4.1875 5.46875 7.640625 5.4375h72v224c0 4.417968 3.582031 8 8 8h304c4.421875 0 8-3.582032 8-8v-224h72c3.445312 0 6.503906-2.203126 7.589844-5.46875 1.089844-3.265626-.035156-6.863282-2.789063-8.929688zm-268.800781 230.398438v-96h64v96zm184-232c-4.417969 0-8 3.582031-8 8v224h-96v-104c0-4.417969-3.578125-8-8-8h-80c-4.417969 0-8 3.582031-8 8v104h-96v-224c0-4.417969-3.578125-8-8-8h-56.214844l208.214844-157.957032 208.210938 157.957032zm0 0" fill="url(#b)"/><path d="m200.0625 120.054688c0 22.09375 17.910156 40 40 40 22.09375 0 40-17.90625 40-40 0-22.089844-17.90625-40-40-40-22.078125.027343-39.972656 17.921874-40 40zm64 0c0 13.257812-10.742188 24-24 24-13.253906 0-24-10.742188-24-24 0-13.253907 10.746094-24 24-24 13.257812 0 24 10.746093 24 24zm0 0" fill="url(#c)"/></svg>